<?xml version="1.0"?>
<svg width="162" height="24.0000007" xmlns="http://www.w3.org/2000/svg" xmlns:svg="http://www.w3.org/2000/svg" version="1.1">
 <g class="layer">
  <title>Layer 1</title>
  <g fill="none" fill-rule="evenodd" id="Page-1">
   <g fill-rule="nonzero" id="switch_28">
    <path d="m-2,21.23l0,-18.46c0,-0.93 0.57,-1.79 1.53,-2.3c0.38,-0.2 0.79,-0.34 1.24,-0.42c0.21,-0.03 0.44,-0.05 0.66,-0.05l158.14,0c0.67,0 1.33,0.16 1.9,0.47c0.18,0.1 0.36,0.21 0.52,0.34c0.16,0.13 0.31,0.27 0.43,0.42c0.12,0.15 0.23,0.31 0.32,0.48c0.09,0.17 0.15,0.34 0.19,0.52c0.03,0.09 0.04,0.18 0.05,0.27c0.01,0.09 0.02,0.18 0.02,0.27l0,18.46c0,0.09 -0.01,0.18 -0.02,0.27c-0.02,0.18 -0.06,0.36 -0.13,0.53c-0.09,0.26 -0.24,0.51 -0.43,0.74c-0.12,0.15 -0.26,0.29 -0.43,0.42c-0.15,0.13 -0.34,0.24 -0.52,0.34c-0.56,0.31 -1.23,0.47 -1.9,0.47l-158.14,0c-1.14,0 -2.21,-0.46 -2.85,-1.23c-0.38,-0.46 -0.58,-0.99 -0.58,-1.54z" fill="#555557" id="Path"/>
    <path d="m26.04,5.96c0,-0.55 0.34,-1.05 0.86,-1.27c0.26,-0.1 0.54,-0.13 0.81,-0.08c0.32,0.07 0.6,0.23 0.8,0.48c0.31,0.36 0.4,0.83 0.26,1.27c-0.08,0.26 -0.23,0.5 -0.46,0.67c-0.24,0.2 -0.56,0.31 -0.89,0.31c-0.57,0 -1.08,-0.34 -1.29,-0.85c-0.07,-0.17 -0.1,-0.35 -0.1,-0.53l0,0z" fill="#49B87D" id="svg_1"/>
    <path d="m1.74,5.96c0,-0.49 0.26,-0.94 0.7,-1.19c0.43,-0.24 0.97,-0.24 1.4,0c0.44,0.25 0.7,0.7 0.7,1.19c0,0.76 -0.62,1.38 -1.4,1.38c-0.77,0 -1.41,-0.62 -1.41,-1.38l0,0zm0.94,3.22c-0.34,-0.01 -0.64,0.17 -0.81,0.45c-0.16,0.29 -0.16,0.64 0,0.92c0.17,0.29 0.48,0.46 0.81,0.46l14.95,0c0.34,0 0.64,-0.17 0.8,-0.46c0.17,-0.28 0.17,-0.63 0,-0.92c-0.16,-0.28 -0.47,-0.46 -0.8,-0.45l-14.95,0zm0,3.67c-0.34,-0.01 -0.64,0.17 -0.81,0.45c-0.16,0.29 -0.16,0.64 0,0.92c0.17,0.29 0.48,0.46 0.81,0.46l14.95,0c0.34,0 0.64,-0.17 0.8,-0.46c0.17,-0.28 0.17,-0.63 0,-0.92c-0.16,-0.28 -0.47,-0.46 -0.8,-0.45l-14.95,0l0,0zm5.13,-8.26c-0.77,0 -1.4,0.61 -1.4,1.37c0,0.76 0.62,1.38 1.4,1.38c0.77,0 1.41,-0.62 1.41,-1.38c0,-0.76 -0.63,-1.37 -1.41,-1.37zm3.28,1.37c-0.01,-0.49 0.26,-0.94 0.69,-1.19c0.44,-0.24 0.97,-0.24 1.41,0c0.44,0.25 0.7,0.7 0.7,1.19c0,0.76 -0.63,1.38 -1.41,1.38c-0.77,0 -1.4,-0.62 -1.4,-1.38l0,0zm6.07,-1.37c-0.77,0 -1.41,0.61 -1.41,1.37c0,0.76 0.63,1.38 1.41,1.38c0.77,0 1.41,-0.62 1.41,-1.38c0,-0.76 -0.63,-1.37 -1.41,-1.37zm-15.42,13.3c0,-0.49 0.26,-0.94 0.7,-1.19c0.43,-0.25 0.97,-0.25 1.4,0c0.44,0.25 0.7,0.7 0.7,1.19c0,0.76 -0.62,1.38 -1.4,1.38c-0.77,0 -1.41,-0.62 -1.41,-1.38l0,0zm6.07,-1.37c-0.5,-0.01 -0.96,0.26 -1.21,0.68c-0.24,0.43 -0.24,0.95 0,1.38c0.25,0.43 0.71,0.69 1.21,0.69c0.77,0 1.41,-0.62 1.41,-1.38c0,-0.76 -0.63,-1.37 -1.41,-1.37zm3.28,1.37c-0.01,-0.49 0.26,-0.94 0.69,-1.19c0.44,-0.25 0.97,-0.25 1.41,0c0.44,0.25 0.7,0.7 0.7,1.19c0,0.76 -0.63,1.38 -1.41,1.38c-0.77,0 -1.4,-0.62 -1.4,-1.38l0,0zm6.07,-1.37c-0.5,-0.01 -0.97,0.26 -1.21,0.68c-0.25,0.43 -0.25,0.95 0,1.38c0.24,0.43 0.71,0.69 1.21,0.69c0.77,0 1.4,-0.62 1.4,-1.38c0,-0.76 -0.62,-1.37 -1.4,-1.37z" fill="#414142" id="Shape"/>
    <path d="m26.04,10.55c0,-0.56 0.34,-1.06 0.86,-1.27c0.26,-0.1 0.54,-0.13 0.81,-0.08c0.32,0.06 0.6,0.23 0.8,0.48c0.31,0.35 0.4,0.83 0.26,1.27c-0.08,0.26 -0.23,0.49 -0.46,0.66c-0.24,0.21 -0.56,0.32 -0.89,0.32c-0.57,0 -1.08,-0.34 -1.29,-0.85c-0.07,-0.17 -0.1,-0.35 -0.1,-0.53l0,0z" fill="#F0CC18" id="svg_2"/>
    <path d="m31.64,4.02c0,-0.7 0.75,-1.27 1.69,-1.27l124.95,0c0.94,0 1.69,0.57 1.69,1.27l0,15.81c0,0.7 -0.75,1.27 -1.69,1.27l-124.95,0c-0.94,0 -1.69,-0.57 -1.69,-1.27l0,-15.81z" fill="#EDEEF0" id="svg_3"/>
    <path d="m128.47,3.67l-95.54,0c-0.19,0 -0.36,0.16 -0.36,0.35l0,15.81c0,0.2 0.16,0.36 0.36,0.36l95.54,0c0.09,0 0.18,-0.04 0.25,-0.11c0.06,-0.06 0.1,-0.15 0.1,-0.25l0,-15.81c0,-0.19 -0.16,-0.35 -0.36,-0.35l0,0zm-95.54,-0.92c-0.71,0 -1.29,0.57 -1.29,1.27l0,15.81c0,0.7 0.58,1.27 1.29,1.27l95.54,0c0.71,0 1.29,-0.57 1.29,-1.27l0,-15.81c0,-0.7 -0.58,-1.27 -1.29,-1.27l-95.54,0l0,0z" fill="#EDEEF0" id="svg_4"/>
   </g>
  </g>
 </g>
</svg>