<svg width="202px" height="170px" viewBox="0 0 202 170" version="1.1" xmlns="http://www.w3.org/2000/svg" xmlns:xlink="http://www.w3.org/1999/xlink"> <defs> <path d="M85,124 L117,124.08143 L117,143.413024 C106.354667,144.173585 95.7109742,144.194757 85.0656409,143.478168 L85,124 L85,124 Z" id="path-k80red41ya-1"></path> <filter x="-21.9%" y="-25.0%" width="143.8%" height="170.0%" filterUnits="objectBoundingBox" id="filter-k80red41ya-2"> <feOffset dx="0" dy="2" in="SourceAlpha" result="shadowOffsetOuter1"></feOffset> <feGaussianBlur stdDeviation="2" in="shadowOffsetOuter1" result="shadowBlurOuter1"></feGaussianBlur> <feColorMatrix values="0 0 0 0 0   0 0 0 0 0   0 0 0 0 0  0 0 0 0.5 0" type="matrix" in="shadowBlurOuter1"></feColorMatrix> </filter> </defs> <g id="Host-full" stroke="none" stroke-width="1" fill="none" fill-rule="evenodd"> <g id="host_6" fill-rule="nonzero"> <path d="M116.787637,124 L84.9564685,123.919581 C60.9933119,123.843987 37.0415814,123.823079 13.0996453,123.855246 C4.85618888,123.871329 0.252912064,121.29792 0.154970057,112.886085 C-0.084988026,93.5002648 -0.0458112235,74.1128359 0.269235843,54.7270156 C0.481443636,41.4578695 -0.106208739,24.6342005 0.497767248,9.57975093 C0.742622431,3.04972266 4.90515989,0.0581332645 11.1897752,0.0581334299 C71.6967462,-0.00620190058 132.197188,-0.017460509 192.692732,0.0259657646 C199.565,0.0420495146 201.719726,5.99306064 201.687078,12.1531612 C201.545061,44.5893879 201.649534,77.0191811 201.997227,109.444149 C202.078846,116.874871 200.397507,123.806994 191.778606,123.806994 C166.781476,123.796272 141.78437,123.860608 116.787637,124 L116.787637,124 Z" id="Shape" fill="#4B6182"></path> <g id="Path"> <use fill="black" fill-opacity="1" filter="url(#filter-k80red41ya-2)" xlink:href="#path-k80red41ya-1"></use> <use fill="#2E3D50" xlink:href="#path-k80red41ya-1"></use> </g> <path d="M84.7216543,144.145027 C95.3353541,144.844026 105.947418,144.823374 116.561117,144.081482 C125.24416,144.569193 133.937021,144.732821 142.641335,144.573958 C154.470693,144.35155 162.847776,149.975304 161.931533,162.573149 C161.620665,166.655932 159.26461,169.880853 154.912453,169.928511 C143.218895,170.02383 107.94352,170.02383 49.0863258,169.928511 C32.8066416,169.912625 39.073093,150.515439 48.0719133,146.321452 C56.2035746,142.524624 74.9047596,144.65339 84.7216543,144.145027 L84.7216543,144.145027 Z" id="Path" fill="#4B6182"></path> <rect id="Rectangle" stroke="#979797" fill="#D8D8D8" x="7" y="8" width="189" height="94" rx="5"></rect> </g> </g> </svg>
