<svg width="300px" height="170px" viewBox="0 0 300 170" version="1.1" xmlns="http://www.w3.org/2000/svg" xmlns:xlink="http://www.w3.org/1999/xlink"> <g id="host" stroke="none" stroke-width="1" fill="none" fill-rule="evenodd"> <g id="xianshiqi"> <path d="M116.857731,124.489001 L85.0074578,124.408265 C61.0299189,124.332373 37.0638131,124.311382 13.1075075,124.343676 C4.85910347,124.359823 0.253063857,121.776265 0.155063067,113.331258 C-0.0850390343,93.8689884 -0.0458387186,74.4051041 0.269397433,54.9428347 C0.481732589,41.6213609 -0.106272483,24.7313469 0.498065998,9.61752922 C0.743068139,3.06174941 4.90810387,0.0583625163 11.1964911,0.0583626824 C71.7397772,-0.00622635812 132.27653,-0.0175293655 192.808383,0.0260681621 C199.684775,0.0422153392 201.840794,6.01669461 201.808127,12.2010879 C201.666025,44.7652287 201.77056,77.3229106 202.118462,109.875748 C202.20013,117.335774 200.517782,124.295234 191.893708,124.295234 C166.881575,124.28447 141.869466,124.349059 116.857731,124.489001 L116.857731,124.489001 Z M36.3500403,6.75946758 L9.25280776,6.48476313 C8.52382387,6.47610835 7.82230974,6.75959971 7.30834248,7.27074932 C6.79437521,7.78189893 6.51180744,8.47709457 6.52511773,9.19770095 L6.94978804,35.9536793 C5.61044314,41.4873388 5.51734239,47.6717321 6.67211908,54.5068591 L6.62311852,97.2809004 C6.62311852,97.4950262 6.70916069,97.7003819 6.86231675,97.8517916 C7.0154728,98.0032014 7.22319698,98.0882624 7.43979232,98.0882624 L194.44173,98.0721152 C194.891044,98.0767086 195.261414,97.7249198 195.274737,97.2809004 C195.93951,67.5166911 195.857842,37.7411788 195.029735,7.9543635 C195.003279,7.14397813 194.330881,6.50068979 193.510722,6.50111175 L46.2154582,6.53340627 L36.3500403,6.75946758 Z" id="Shape" fill="#4B6182" fill-rule="nonzero"></path> <path d="M85.0074578,124.408265 L116.857731,124.489001 L116.857731,143.655776 C106.262207,144.409853 95.6683158,144.430844 85.0727916,143.720365 L85.0074578,124.408265 L85.0074578,124.408265 Z" id="Path" fill="#2E3D50" fill-rule="nonzero"></path> <path d="M85.0727916,143.720365 C95.668316,144.430844 106.262207,144.409853 116.857731,143.655776 C125.525905,144.151497 134.20388,144.317813 142.893288,144.156341 C154.702389,143.93028 163.065127,149.646403 162.150453,162.451165 C161.840117,166.601006 159.488097,169.878896 155.143393,169.927337 C143.469859,170.024221 108.254891,170.024221 49.4984865,169.927337 C33.2466803,169.91119 39.5024008,150.195409 48.4858111,145.932537 C56.6035474,142.073347 75.2727077,144.237077 85.0727916,143.720365 L85.0727916,143.720365 Z" id="Path" fill="#4B6182" fill-rule="nonzero"></path> <rect id="Rectangle" stroke="#979797" fill="#D8D8D8" x="6.56060606" y="7.49008762" width="188.89899" height="93.8654749" rx="5"></rect> <path d="M287.180574,0.5 C291.496569,0.5 293.06868,0.931711288 294.648429,1.77657012 C296.189636,2.60081641 297.399184,3.81036434 298.22343,5.35157091 C299.068289,6.93131957 299.5,8.50343091 299.5,12.819426 L299.5,156.939845 C299.5,161.25584 299.068289,162.827951 298.22343,164.4077 C297.399184,165.948906 296.189636,167.158454 294.648429,167.982701 C293.06868,168.82756 291.496569,169.259271 287.180574,169.259271 L229.991143,169.259271 C225.675148,169.259271 224.103037,168.82756 222.523288,167.982701 C220.982082,167.158454 219.772534,165.948906 218.948287,164.4077 C218.103428,162.827951 217.671717,161.25584 217.671717,156.939845 L217.671717,12.819426 C217.671717,8.50343091 218.103428,6.93131957 218.948287,5.35157091 C219.772534,3.81036434 220.982082,2.60081641 222.523288,1.77657012 C224.103037,0.931711288 225.675148,0.5 229.991143,0.5 Z" id="Rectangle" stroke="#000000" fill="#4B6182"></path> <path d="M277.382139,23.4674308 C279.863706,23.4674308 282.110343,24.4732843 283.736588,26.0995296 C285.362833,27.7257748 286.368687,29.9724117 286.368687,32.4539782 C286.368687,34.9355448 285.362833,37.1821817 283.736588,38.8084269 C282.110343,40.4346721 279.863706,41.4405257 277.382139,41.4405257 L240.799679,41.4405257 C238.318112,41.4405257 236.071475,40.4346721 234.44523,38.8084269 C232.818985,37.1821817 231.813131,34.9355448 231.813131,32.4539782 C231.813131,29.9724117 232.818985,27.7257748 234.44523,26.0995296 C236.071475,24.4732843 238.318112,23.4674308 240.799679,23.4674308 Z" id="Rectangle" stroke="#979797" fill="#D8D8D8"></path> <path d="M277.382139,53.4249491 C279.863706,53.4249491 282.110343,54.4308027 283.736588,56.057048 C285.362833,57.6832932 286.368687,59.9299301 286.368687,62.4114966 C286.368687,64.8930632 285.362833,67.1397001 283.736588,68.7659453 C282.110343,70.3921905 279.863706,71.3980441 277.382139,71.3980441 L240.799679,71.3980441 C238.318112,71.3980441 236.071475,70.3921905 234.44523,68.7659453 C232.818985,67.1397001 231.813131,64.8930632 231.813131,62.4114966 C231.813131,59.9299301 232.818985,57.6832932 234.44523,56.057048 C236.071475,54.4308027 238.318112,53.4249491 240.799679,53.4249491 Z" id="Rectangle-Copy" stroke="#979797" fill="#D8D8D8"></path> <path d="M248.624738,132.930934 C248.624738,138.567031 253.246393,143.13599 258.947493,143.13599 C264.648593,143.13599 269.270248,138.567031 269.270248,132.930934 C269.270248,127.294837 264.648593,122.725877 258.947493,122.725877 C253.246393,122.725877 248.624738,127.294837 248.624738,132.930934 L248.624738,132.930934 Z" id="Path" fill="#A1A1A1" fill-rule="nonzero"></path> </g> </g> </svg>
