<svg width="259px" height="220px" viewBox="0 0 259 220" version="1.1" xmlns="http://www.w3.org/2000/svg" xmlns:xlink="http://www.w3.org/1999/xlink"> <g id="GreyPort" stroke="none" stroke-width="1" fill="none" fill-rule="evenodd"> <rect id="Rectangle" fill="#A1A1A1" transform="translate(129.5, 22.5) rotate(180) translate(-129.5, -22.5)" x="86" y="0" width="87" height="45" rx="8"></rect> <rect id="Rectangle" fill="#A1A1A1" transform="translate(129, 56) rotate(180) translate(-129, -56)" x="55" y="23" width="148" height="66" rx="8"></rect> <rect id="Rectangle" fill="#A1A1A1" transform="translate(129.5, 138) rotate(180) translate(-129.5, -138)" x="0" y="56" width="259" height="164" rx="15"></rect> <rect id="Rectangle-Copy-5" fill="#FFFFFF" transform="translate(46, 184) rotate(180) translate(-46, -184)" x="37" y="175" width="18" height="18" rx="9"></rect> <rect id="Rectangle-Copy-6" fill="#FFFFFF" transform="translate(73.8861, 184) rotate(180) translate(-73.8861, -184)" x="65" y="175" width="17.7721519" height="18" rx="8.88607595"></rect> <rect id="Rectangle-Copy-4" fill="#FFFFFF" transform="translate(101.5316, 184) rotate(180) translate(-101.5316, -184)" x="92.6455696" y="175" width="17.7721519" height="18" rx="8.88607595"></rect> <rect id="Rectangle-Copy-3" fill="#FFFFFF" transform="translate(129.1772, 184) rotate(180) translate(-129.1772, -184)" x="120.291139" y="175" width="17.7721519" height="18" rx="8.88607595"></rect> <rect id="Rectangle-Copy-2" fill="#FFFFFF" transform="translate(156.8228, 184) rotate(180) translate(-156.8228, -184)" x="147.936709" y="175" width="17.7721519" height="18" rx="8.88607595"></rect> <rect id="Rectangle-Copy" fill="#FFFFFF" transform="translate(184.4684, 184) rotate(180) translate(-184.4684, -184)" x="175.582278" y="175" width="17.7721519" height="18" rx="8.88607595"></rect> <rect id="Rectangle" fill="#FFFFFF" transform="translate(212.1139, 184) rotate(180) translate(-212.1139, -184)" x="203.227848" y="175" width="17.7721519" height="18" rx="8.88607595"></rect> </g> </svg>
