<svg width="64px" height="24.0000007px" viewBox="0 0 64 24.0000007" version="1.1" xmlns="http://www.w3.org/2000/svg" xmlns:xlink="http://www.w3.org/1999/xlink"> <g id="Page-1" stroke="none" stroke-width="1" fill="none" fill-rule="evenodd"> <g id="switch_6" fill-rule="nonzero"> <path d="M0,21.2307686 L0,2.76923069 C0,1.84474609 0.222587381,0.98146546 0.592444452,0.46707689 C0.738246084,0.265509654 0.901600928,0.125033329 1.07333333,0.0535384835 C1.15896496,0.0183065655 1.24603784,0.000376758557 1.33333333,0 L62.6666667,0 C62.9303822,0.000830636215 63.1881134,0.163311391 63.4075556,0.46707689 C63.4798799,0.568407477 63.5474386,0.683687776 63.6093333,0.811384558 C63.6714441,0.938751784 63.7270029,1.07920091 63.7751111,1.23046152 C63.8235488,1.38161625 63.8649221,1.54203752 63.8986667,1.70953844 C63.9324978,1.87683105 63.9578204,2.05100739 63.9742222,2.22923071 C63.9826667,2.31784611 63.9893333,2.40738456 63.9937778,2.4978461 C63.9977778,2.58830765 64,2.6787692 64,2.76923069 L64,21.2307686 C64,21.3212302 63.9977778,21.4116917 63.9937778,21.5021533 C63.9846997,21.6825898 63.9675891,21.8608907 63.9426667,22.0347686 C63.9032826,22.2944751 63.8469037,22.5417105 63.7751111,22.7695379 C63.7273082,22.9212659 63.6717242,23.0617796 63.6093333,23.1886148 C63.5479036,23.3173759 63.4802923,23.4327458 63.4075556,23.5329224 C63.1883666,23.8377995 62.9304695,24.000385 62.6666667,24 L1.33333333,24 C0.888211121,23.9991111 0.472557487,23.5377025 0.224888909,22.7695379 C0.0785347291,22.3138682 0,21.7785186 0,21.2307686 Z" id="Path" fill="#555557"></path> <path d="M27.525032,5.96375691 C27.5259571,5.40734937 27.8609588,4.90593216 28.3746379,4.69210046 C28.6264156,4.58867949 28.903042,4.56155923 29.1701113,4.61411283 C29.482436,4.67578009 29.7634462,4.84451598 29.9646673,5.09121342 C30.2552198,5.44664879 30.3501263,5.92324427 30.2178976,6.36286986 C30.1400531,6.6239401 29.9856826,6.85565573 29.7747445,7.02805811 C29.5289156,7.23078538 29.2199196,7.34114111 28.9012835,7.34003403 C28.344876,7.33908335 27.8434588,7.00408165 27.6296271,6.49040253 C27.5608207,6.32333382 27.5252912,6.14443953 27.525032,5.96375691 L27.525032,5.96375691 Z" id="Path" fill="#49B87D"></path> <path d="M3.67000417,5.96375691 C3.66990004,5.4720001 3.93218931,5.01755347 4.35804584,4.77164497 C4.78390237,4.52573647 5.30860934,4.52573647 5.73446587,4.77164497 C6.1603224,5.01755347 6.42261168,5.4720001 6.42250754,5.96375691 C6.42234638,6.72372576 5.80622473,7.33971684 5.04625586,7.33971684 C4.28628699,7.33971684 3.67016534,6.72372576 3.67000417,5.96375691 L3.67000417,5.96375691 Z M4.58750535,9.17501054 C4.25965707,9.17492553 3.95667635,9.34978163 3.79272763,9.63369239 C3.62877892,9.91760316 3.62877892,10.2674202 3.79272763,10.551331 C3.95667635,10.8352417 4.25965707,11.0100978 4.58750535,11.0100128 L19.2675223,11.0100128 C19.5953706,11.0100978 19.8983514,10.8352417 20.0623001,10.551331 C20.2262488,10.2674202 20.2262488,9.91760316 20.0623001,9.63369239 C19.8983514,9.34978163 19.5953706,9.17492553 19.2675223,9.17501054 L4.58750535,9.17501054 Z M4.58750535,12.8450149 C4.25965707,12.8449298 3.95667635,13.0197859 3.79272763,13.3036967 C3.62877892,13.5876074 3.62877892,13.9374245 3.79272763,14.2213352 C3.95667635,14.505246 4.25965707,14.6801021 4.58750535,14.680017 L19.2675223,14.680017 C19.5953706,14.6801021 19.8983514,14.505246 20.0623001,14.2213352 C20.2262488,13.9374245 20.2262488,13.5876074 20.0623001,13.3036967 C19.8983514,13.0197859 19.5953706,12.8449298 19.2675223,12.8450149 L4.58750535,12.8450149 L4.58750535,12.8450149 Z M9.63376117,4.58750529 C8.87367839,4.58750529 8.25750955,5.20367413 8.25750955,5.96375691 C8.25750955,6.72383969 8.87367839,7.34000853 9.63376117,7.34000853 C10.393844,7.34000853 11.0100128,6.72383969 11.0100128,5.96375691 C11.0100128,5.20367413 10.393844,4.58750529 9.63376117,4.58750529 Z M12.8450149,5.96375691 C12.8449107,5.4720001 13.1071999,5.01755347 13.5330565,4.77164497 C13.958913,4.52573647 14.48362,4.52573647 14.9094765,4.77164497 C15.335333,5.01755347 15.5976223,5.4720001 15.5975181,5.96375691 C15.597357,6.72372576 14.9812354,7.33971684 14.2212665,7.33971684 C13.4612976,7.33971684 12.845176,6.72372576 12.8450149,5.96375691 L12.8450149,5.96375691 Z M18.8087718,4.58750529 C18.048689,4.58750529 17.4325202,5.20367413 17.4325202,5.96375691 C17.4325202,6.72383969 18.048689,7.34000853 18.8087718,7.34000853 C19.5688546,7.34000853 20.1850234,6.72383969 20.1850234,5.96375691 C20.1850234,5.20367413 19.5688546,4.58750529 18.8087718,4.58750529 Z M3.67000417,17.8912707 C3.66990004,17.3995139 3.93218931,16.9450673 4.35804584,16.6991588 C4.78390237,16.4532503 5.30860934,16.4532503 5.73446587,16.6991588 C6.1603224,16.9450673 6.42261168,17.3995139 6.42250754,17.8912707 C6.42234638,18.6512396 5.80622473,19.2672307 5.04625586,19.2672307 C4.28628699,19.2672307 3.67016534,18.6512396 3.67000417,17.8912707 L3.67000417,17.8912707 Z M9.63376117,16.5150191 C9.14200436,16.5149149 8.68755773,16.7772042 8.44164923,17.2030607 C8.19574073,17.6289173 8.19574073,18.1536242 8.44164923,18.5794808 C8.68755773,19.0053373 9.14200436,19.2676266 9.63376117,19.2675224 C10.39373,19.2673613 11.0097211,18.6512396 11.0097211,17.8912708 C11.0097211,17.1313019 10.39373,16.5151802 9.63376117,16.5150191 Z M12.8450149,17.8912707 C12.8449107,17.3995139 13.1071999,16.9450673 13.5330565,16.6991588 C13.958913,16.4532503 14.48362,16.4532503 14.9094765,16.6991588 C15.335333,16.9450673 15.5976223,17.3995139 15.5975181,17.8912707 C15.597357,18.6512396 14.9812354,19.2672307 14.2212665,19.2672307 C13.4612976,19.2672307 12.845176,18.6512396 12.8450149,17.8912707 L12.8450149,17.8912707 Z M18.8087718,16.5150191 C18.317015,16.5149149 17.8625684,16.7772042 17.6166599,17.2030607 C17.3707514,17.6289173 17.3707514,18.1536242 17.6166599,18.5794808 C17.8625684,19.0053373 18.317015,19.2676266 18.8087718,19.2675224 C19.5687407,19.2673613 20.1847317,18.6512396 20.1847317,17.8912708 C20.1847317,17.1313019 19.5687407,16.5151802 18.8087718,16.5150191 Z" id="Shape" fill="#414142"></path> <path d="M27.525032,10.5512623 C27.5259571,9.9948547 27.8609588,9.49343746 28.3746379,9.27960575 C28.6264156,9.1761848 28.9030421,9.14906456 29.1701113,9.20161818 C29.482436,9.26328542 29.7634461,9.43202129 29.9646673,9.6787187 C30.2552199,10.0341541 30.3501263,10.5107496 30.2178976,10.9503752 C30.1398883,11.2111122 29.985531,11.4424883 29.7747445,11.6146459 C29.5290419,11.8177035 29.2200333,11.9283883 28.9012835,11.9275291 C28.344876,11.9265886 27.8434588,11.5915869 27.6296271,11.0779078 C27.5608207,10.9108391 27.5252912,10.7319449 27.525032,10.5512623 L27.525032,10.5512623 Z" id="Path" fill="#F0CC18"></path> <path d="M33.0300383,4.02324216 C33.0300383,3.32135388 33.1953716,2.75250318 33.3993716,2.75250318 L60.660705,2.75250318 C60.864705,2.75250318 61.0300383,3.32135382 61.0300383,4.02324216 L61.0300383,19.8317855 C61.0300383,20.5336738 60.864705,21.1025245 60.660705,21.1025245 L33.3993716,21.1025245 C33.1953716,21.1025245 33.0300383,20.5336738 33.0300383,19.8317855 L33.0300383,4.02324216 Z" id="Path" fill="#EDEEF0"></path> <path d="M59.9028155,3 L34.0971845,3 C34.043511,3 34,3.16279423 34,3.36361109 L34,19.6363889 C34,19.8375555 34.0434175,20 34.0971845,20 L59.9028155,20 C59.9285906,20 59.9533097,19.9616911 59.9715353,19.8935008 C59.989761,19.8253105 60,19.7328245 60,19.6363889 L60,3.36361109 C60,3.16279423 59.956489,3 59.9028155,3 L59.9028155,3 Z M33.3693333,3 C33.1653333,3 33,3.55799998 33,4.2465 L33,19.7535 C33,20.442 33.1653333,21 33.3693333,21 L60.6306667,21 C60.8346666,21 61,20.442 61,19.7535 L61,4.2465 C61,3.55800004 60.8346666,3 60.6306667,3 L33.3693333,3 L33.3693333,3 Z" id="Shape" fill="#EDEEF0"></path> </g> </g> </svg>
