<svg width="171px" height="24.0000007px" viewBox="0 0 171 24.0000007" version="1.1" xmlns="http://www.w3.org/2000/svg" xmlns:xlink="http://www.w3.org/1999/xlink"> <g id="Page-1" stroke="none" stroke-width="1" fill="none" fill-rule="evenodd"> <g id="switch_30_NG" fill-rule="nonzero"> <path d="M0,21.2307686 L0,2.76923069 C0,1.84474609 0.590586667,0.98146546 1.57118751,0.46707689 C1.96435208,0.265509654 2.40728819,0.125033329 2.86875,0.0535384835 C3.06574684,0.0183065655 3.26650327,0.000376758557 3.46875,0 L167.53125,0 C168.241323,0.000830636215 168.936151,0.163311391 169.531875,0.46707689 C169.729124,0.568407477 169.914032,0.683687776 170.084438,0.811384558 C170.255423,0.938751784 170.409908,1.07920091 170.545938,1.23046152 C170.682767,1.38161625 170.800117,1.54203752 170.896125,1.70953844 C170.992363,1.87683105 171.055846,2.05100739 171.09525,2.22923071 C171.115938,2.31784611 171.133,2.40738456 171.144375,2.4978461 C171.154688,2.58830765 171,2.6787692 171,2.76923069 L171,21.2307686 C171,21.3212302 171.154688,21.4116917 171.144375,21.5021533 C171.122227,21.6825898 171.082729,21.8608907 171.026625,22.0347686 C170.927338,22.2944751 170.790425,22.5417105 170.545938,22.7695379 C170.423407,22.9212659 170.288357,23.0617796 170.084438,23.1886148 C169.915132,23.3173759 169.729992,23.4327458 169.531875,23.5329224 C168.937019,23.8377995 168.241449,24.000385 167.53125,24 L3.46875,24 C2.42009479,23.9991111 1.44284615,23.5377025 0.625125039,22.7695379 C0.218916699,22.3138682 0,21.7785186 0,21.2307686 Z" id="Path" fill="#555557"></path> <path d="M27.525032,5.96375691 C27.5259571,5.40734937 27.8609588,4.90593216 28.3746379,4.69210046 C28.6264156,4.58867949 28.903042,4.56155923 29.1701113,4.61411283 C29.482436,4.67578009 29.7634462,4.84451598 29.9646673,5.09121342 C30.2552198,5.44664879 30.3501263,5.92324427 30.2178976,6.36286986 C30.1400531,6.6239401 29.9856826,6.85565573 29.7747445,7.02805811 C29.5289156,7.23078538 29.2199196,7.34114111 28.9012835,7.34002566 C28.344876,7.33908335 27.8434588,7.00408165 27.6296271,6.49040253 C27.5608207,6.32333382 27.5252912,6.14443953 27.525032,5.96375691 L27.525032,5.96375691 Z" id="Path" fill="#49B87D"></path> <path d="M3.6700042,5.96375691 C3.66990004,5.4720001 3.93218931,5.01755347 4.35804584,4.77164497 C4.78390237,4.52573647 5.30860934,4.52573647 5.73446587,4.77164497 C6.1603224,5.01755347 6.42261168,5.4720001 6.42250751,5.96375691 C6.42234638,6.72372576 5.80622473,7.33971684 5.04625586,7.33971684 C4.28628699,7.33971684 3.67016534,6.72372576 3.6700042,5.96375691 L3.6700042,5.96375691 Z M4.58750535,9.17501057 C4.25965707,9.17492553 3.95667635,9.34978163 3.79272763,9.63369239 C3.62877892,9.91760316 3.62877892,10.2674202 3.79272763,10.551331 C3.95667635,10.8352417 4.25965707,11.0100978 4.58750535,11.0100128 L19.2675223,11.0100128 C19.5953706,11.0100978 19.8983514,10.8352417 20.0623001,10.551331 C20.2262488,10.2674202 20.2262488,9.91760316 20.0623001,9.63369239 C19.8983514,9.34978163 19.5953706,9.17492553 19.2675223,9.17501057 L4.58750535,9.17501057 Z M4.58750535,12.8450149 C4.25965707,12.8449298 3.95667635,13.0197859 3.79272763,13.3036967 C3.62877892,13.5876074 3.62877892,13.9374245 3.79272763,14.2213352 C3.95667635,14.505246 4.25965707,14.6801021 4.58750535,14.680017 L19.2675223,14.680017 C19.5953706,14.6801021 19.8983514,14.505246 20.0623001,14.2213352 C20.2262488,13.9374245 20.2262488,13.5876074 20.0623001,13.3036967 C19.8983514,13.0197859 19.5953706,12.8449298 19.2675223,12.8450149 L4.58750535,12.8450149 L4.58750535,12.8450149 Z M9.63376117,4.58750529 C8.87367839,4.58750529 8.25750955,5.20367413 8.25750955,5.96375691 C8.25750955,6.72383969 8.87367839,7.34000853 9.63376117,7.34000853 C10.393844,7.34000853 11.0100128,6.72383969 11.0100128,5.96375691 C11.0100128,5.20367413 10.393844,4.58750529 9.63376117,4.58750529 Z M12.8450149,5.96375691 C12.8449107,5.4720001 13.1071999,5.01755347 13.5330565,4.77164497 C13.958913,4.52573647 14.48362,4.52573647 14.9094765,4.77164497 C15.335333,5.01755347 15.5976223,5.4720001 15.5975181,5.96375691 C15.597357,6.72372576 14.9812354,7.33971684 14.2212665,7.33971684 C13.4612976,7.33971684 12.845176,6.72372576 12.8450149,5.96375691 L12.8450149,5.96375691 Z M18.8087718,4.58750529 C18.048689,4.58750529 17.4325202,5.20367413 17.4325202,5.96375691 C17.4325202,6.72383969 18.048689,7.34000853 18.8087718,7.34000853 C19.5688546,7.34000853 20.1850234,6.72383969 20.1850234,5.96375691 C20.1850234,5.20367413 19.5688546,4.58750529 18.8087718,4.58750529 Z M3.6700042,17.8912707 C3.66990004,17.3995139 3.93218931,16.9450673 4.35804584,16.6991588 C4.78390237,16.4532503 5.30860934,16.4532503 5.73446587,16.6991588 C6.1603224,16.9450673 6.42261168,17.3995139 6.42250751,17.8912707 C6.42234638,18.6512396 5.80622473,19.2672307 5.04625586,19.2672307 C4.28628699,19.2672307 3.67016534,18.6512396 3.6700042,17.8912707 L3.6700042,17.8912707 Z M9.63376117,16.5150191 C9.14200436,16.5149149 8.68755773,16.7772042 8.44164923,17.2030607 C8.19574073,17.6289173 8.19574073,18.1536242 8.44164923,18.5794808 C8.68755773,19.0053373 9.14200436,19.2676266 9.63376117,19.2675224 C10.39373,19.2673613 11.0097211,18.6512396 11.0097211,17.8912708 C11.0097211,17.1313019 10.39373,16.5151802 9.63376117,16.5150191 Z M12.8450149,17.8912707 C12.8449107,17.3995139 13.1071999,16.9450673 13.5330565,16.6991588 C13.958913,16.4532503 14.48362,16.4532503 14.9094765,16.6991588 C15.335333,16.9450673 15.5976223,17.3995139 15.5975181,17.8912707 C15.597357,18.6512396 14.9812354,19.2672307 14.2212665,19.2672307 C13.4612976,19.2672307 12.845176,18.6512396 12.8450149,17.8912707 L12.8450149,17.8912707 Z M18.8087718,16.5150191 C18.317015,16.5149149 17.8625684,16.7772042 17.6166599,17.2030607 C17.3707514,17.6289173 17.3707514,18.1536242 17.6166599,18.5794808 C17.8625684,19.0053373 18.317015,19.2676266 18.8087718,19.2675224 C19.5687407,19.2673613 20.1847317,18.6512396 20.1847317,17.8912708 C20.1847317,17.1313019 19.5687407,16.5151802 18.8087718,16.5150191 Z" id="Shape" fill="#414142"></path> <path d="M27.525032,10.5512623 C27.5259571,9.9948547 27.8609588,9.49343746 28.3746379,9.27960575 C28.6264156,9.1761848 28.9030421,9.14906456 29.1701113,9.20161818 C29.482436,9.26328542 29.7634461,9.43202129 29.9646673,9.6787187 C30.2552199,10.0341541 30.3501263,10.5107496 30.2178976,10.9503752 C30.1398883,11.2111122 29.985531,11.4424883 29.7747445,11.6146459 C29.5290419,11.8177035 29.2200333,11.9283883 28.9012835,11.9275241 C28.344876,11.9265886 27.8434588,11.5915869 27.6296271,11.0779078 C27.5608207,10.9108391 27.5252912,10.7319449 27.525032,10.5512623 L27.525032,10.5512623 Z" id="Path" fill="#F0CC18"></path> <path d="M33.0300383,4.02324216 C33.0300383,3.32135388 33.8400383,2.75250318 34.8200383,2.75250318 L166.220038,2.75250318 C167.200038,2.75250318 168.030038,3.32135382 168.030038,4.02324216 L168.030038,19.8317855 C168.030038,20.5336738 167.200038,21.1025245 166.220038,21.1025245 L34.8200383,21.1025245 C33.8400383,21.1025245 33.0300383,20.5336738 33.0300383,19.8317855 L33.0300383,4.02324216 Z" id="Path" fill="#EDEEF0"></path> <path d="M137.096911,3.67000427 L34.3007773,3.67000427 C34.1056894,3.67000427 33.9475394,3.82815426 33.9475394,4.02324216 L33.9475394,19.8317855 C33.9475394,20.0272132 34.1053496,20.1850234 34.3007773,20.1850234 L137.096911,20.1850234 C137.190596,20.1850234 137.280443,20.1478074 137.346688,20.0815624 C137.412933,20.0153175 137.450149,19.92547 137.450149,19.8317855 L137.450149,4.02324216 C137.450149,3.82815426 137.291999,3.67000427 137.096911,3.67000427 L137.096911,3.67000427 Z M34.3007773,2.75250318 C33.598889,2.75250318 33.0300383,3.32135382 33.0300383,4.02324216 L33.0300383,19.8317855 C33.0300383,20.5336738 33.598889,21.1025245 34.3007773,21.1025245 L137.096911,21.1025245 C137.798799,21.1025245 138.36765,20.5336738 138.36765,19.8317855 L138.36765,4.02324216 C138.36765,3.32135388 137.798799,2.75250318 137.096911,2.75250318 L34.3007773,2.75250318 L34.3007773,2.75250318 Z" id="Shape" fill="#EDEEF0"></path> </g> </g> </svg>