<svg width="305px" height="335px" viewBox="0 0 305 335" version="1.1" xmlns="http://www.w3.org/2000/svg" xmlns:xlink="http://www.w3.org/1999/xlink"> <g id="Page-1" stroke="none" stroke-width="1" fill="none" fill-rule="evenodd"> <g id="Switch" transform="translate(0, 263)"> <path d="M12.819426,0 L292.180574,9.06834139e-16 C296.638168,-5.2689675e-16 298.254599,0.464128056 299.884229,1.33566352 C301.513858,2.20719898 302.792801,3.48614185 303.664336,5.11577148 C304.535872,6.74540111 305,8.3618323 305,12.819426 L305,59.180574 C305,63.6381677 304.535872,65.2545989 303.664336,66.8842285 C302.792801,68.5138581 301.513858,69.792801 299.884229,70.6643365 C298.254599,71.5358719 296.638168,72 292.180574,72 L12.819426,72 C8.3618323,72 6.74540111,71.5358719 5.11577148,70.6643365 C3.48614185,69.792801 2.20719898,68.5138581 1.33566352,66.8842285 C0.464128056,65.2545989 0,63.6381677 0,59.180574 L0,12.819426 C0,8.3618323 0.464128056,6.74540111 1.33566352,5.11577148 C2.20719898,3.48614185 3.48614185,2.20719898 5.11577148,1.33566352 C6.74540111,0.464128056 8.3618323,0 12.819426,0 Z" id="Rectangle" fill="#000000"></path> <ellipse id="Oval" stroke="#979797" fill="#D8D8D8" cx="36.6772152" cy="36.5" rx="10.1170886" ry="10"></ellipse> <rect id="Rectangle" stroke="#979797" fill="#D8D8D8" x="83.5063291" y="17.5" width="203.620253" height="38"></rect> <g id="Port1" transform="translate(94.5886, 23)" fill="#000000" fill-rule="nonzero"> <rect id="Rectangle" transform="translate(18.8088, 4.6667) rotate(180) translate(-18.8088, -4.6667)" x="10.3448556" y="0" width="16.9279455" height="9.33333333" rx="4"></rect> <rect id="Rectangle" transform="translate(18.3386, 16.3333) rotate(180) translate(-18.3386, -16.3333)" x="0" y="4.66666667" width="36.6772152" height="23.3333333" rx="3"></rect> </g> <g id="Port2" transform="translate(142.8481, 23)" fill="#000000" fill-rule="nonzero"> <rect id="Rectangle" transform="translate(18.8088, 4.6667) rotate(180) translate(-18.8088, -4.6667)" x="10.3448556" y="0" width="16.9279455" height="9.33333333" rx="4"></rect> <rect id="Rectangle" transform="translate(18.3386, 16.3333) rotate(180) translate(-18.3386, -16.3333)" x="0" y="4.66666667" width="36.6772152" height="23.3333333" rx="3"></rect> </g> <g id="Port3" transform="translate(190.1424, 23)" fill="#000000" fill-rule="nonzero"> <rect id="Rectangle" transform="translate(18.8088, 4.6667) rotate(180) translate(-18.8088, -4.6667)" x="10.3448556" y="0" width="16.9279455" height="9.33333333" rx="4"></rect> <rect id="Rectangle" transform="translate(18.3386, 16.3333) rotate(180) translate(-18.3386, -16.3333)" x="0" y="4.66666667" width="36.6772152" height="23.3333333" rx="3"></rect> </g> <g id="Port4" transform="translate(237.4367, 23)" fill="#000000" fill-rule="nonzero"> <rect id="Rectangle" transform="translate(18.8088, 4.6667) rotate(180) translate(-18.8088, -4.6667)" x="10.3448556" y="0" width="16.9279455" height="9.33333333" rx="4"></rect> <rect id="Rectangle" transform="translate(18.3386, 16.3333) rotate(180) translate(-18.3386, -16.3333)" x="0" y="4.66666667" width="36.6772152" height="23.3333333" rx="3"></rect> </g> </g> <g id="Monitor" transform="translate(0, 20)"> <rect id="Rectangle" fill="#000000" x="0" y="0" width="305" height="194" rx="22"></rect> <rect id="Rectangle" stroke="#979797" fill="#FFFFFF" x="9.5" y="10.5" width="285" height="174" rx="15"></rect> <rect id="Rectangle" fill="#000000" x="127" y="189" width="51" height="43"></rect> <rect id="Rectangle" fill="#000000" x="82" y="223" width="140" height="14" rx="4"></rect> </g> <g id="Question-Mark" transform="translate(85, 0)" fill="#F68917" fill-rule="nonzero" stroke="#FFD089" stroke-width="7"> <path d="M64.954937,159.271697 C70.8427796,159.271697 76.1569023,161.365506 80.0097573,164.697458 C84.0608777,168.20087 86.5088248,173.057272 86.5088248,178.384712 C86.5088248,183.714301 84.0611292,188.570667 80.0108834,192.073833 C76.1579354,195.40635 70.8433802,197.5 64.954937,197.5 C59.0665345,197.5 53.7528538,195.406365 49.900648,192.073964 C45.8510387,188.570797 43.4038967,183.714369 43.4038967,178.384712 C43.4038967,173.057114 45.8512774,168.200681 49.9017201,164.697303 C53.7538355,161.365465 59.0671045,159.271697 64.954937,159.271697 Z M64.620446,-3.48397988 C87.6531525,-1.93859228 104.887011,3.51104318 116.998713,12.6284782 C129.433035,21.9887754 136.635111,35.2057588 138.479921,52.3540854 C137.824261,76.7322824 120.737985,88.1290048 106.150766,97.4366529 C101.448475,100.437037 97.072622,103.19747 93.8837854,106.218088 C83.5487731,116.008426 82.7228115,138.160982 82.7228115,138.160982 C82.1770623,143.848963 80.3102049,147.895549 77.4074807,150.633964 C74.4581234,153.416371 70.3511319,154.956855 64.955156,154.956855 C59.0610612,154.956855 54.7589357,153.384346 51.8490814,150.638699 C48.8713615,147.829017 47.1860966,143.68204 47.1860966,137.993021 C47.1910035,137.807753 48.5202319,115.422678 55.4090928,104.955382 C63.4607357,92.7196042 70.0561699,85.5204043 80.1116092,78.4045885 C81.8129576,77.201071 83.8082828,76.1050873 85.9085119,74.9625604 C89.8291065,72.8297527 94.2463063,70.5541327 97.1798377,66.4005945 C99.1252518,63.6461152 100.346681,60.0421582 100.37191,55.1254545 C99.571007,46.556734 96.3865941,39.8980028 90.6348664,35.2555706 C84.6310182,30.4096426 75.9967054,27.760502 64.8458546,27.0588538 C55.7236482,27.0725168 48.2549698,28.8016328 42.4896396,32.4123248 C36.8885585,35.9201513 32.9755566,41.2108388 30.6610257,48.2156277 C28.4955969,52.9519159 26.1644331,56.0570245 23.6502706,58.0144904 C20.7193044,60.2964693 17.4960045,61.1712919 13.9949809,60.696726 C7.82132763,60.234455 3.42913655,58.4895597 0.616187817,55.8353501 C-2.48296902,52.9110837 -3.95234166,48.8209704 -3.3809668,43.3850501 C-1.02172238,29.4719398 5.95803178,18.6934354 17.6015832,10.838752 C28.7990874,3.28496986 44.4481028,-1.54726774 64.620446,-3.48397988 Z" id="Shape"></path> </g> </g> </svg>
